<svg width="50" height="50" viewBox="0 0 50 50" fill="none" xmlns="http://www.w3.org/2000/svg">
<path d="M11.625 16.85C11.625 16.85 15.7625 10.0875 24.225 10.0875C32.6875 10.0875 36.6375 16.65 36.6375 16.65H48.125L47.675 19.475C47.675 19.475 47.3375 20.6 46.825 20.7125H47.6125C47.6125 20.7125 47.875 21.7 46.3 25.1125H49.65C49.65 25.1125 49.7875 31.0875 42.5625 33.9125C42.5625 33.9125 38.825 35.1 36.9125 33.0625C36.9125 33.0625 33.1125 40.15 24.25 40.15C15.3875 40.15 11.3625 32.8625 11.3625 32.8625H1.05L2.6875 29.9125H1.575L2.8875 27.4875H5.125L5.525 26.5625H4.475L7.0375 21.8375H8.475L9.0625 20.4H7.8125L9.725 16.85H11.625Z" fill="white"/>
<path d="M24.35 38.575C31.6 38.575 37.475 32.6125 37.475 25.25C37.475 17.8875 31.6 11.925 24.35 11.925C17.1 11.925 11.225 17.8875 11.225 25.25C11.225 32.6125 17.1 38.575 24.35 38.575Z" fill="#FAB624"/>
<path d="M34.6625 16.6375C34.5 16.45 34.2625 16.05 32.65 14.6375C30.275 12.575 27.1375 11.625 24.175 11.625C22 11.625 20.0875 12.1125 17.9875 13.275C15.2875 14.75 14.1875 16.4625 13.9125 16.8125C13.7125 17.075 13.675 17.2125 13.8125 17.2875C13.9125 17.3375 14.0875 17.1375 14.25 16.9125C15.05 15.85 16.1 14.8125 17.2 14.1875C17.55 14.2375 18.025 14.7125 18.2125 14.975C17.5 15.3625 16.325 16.25 15.8875 16.6C15.5 16.9 15.375 17.0625 15.475 17.1875C15.5625 17.2875 15.8625 17.0875 16.1 16.8875C16.525 16.5375 17.7875 15.65 18.4125 15.3125C18.8375 15.8 18.7 16.725 18.55 16.9375C18.4625 17.05 18.4625 17.1625 18.55 17.2125C18.6375 17.2625 18.7375 17.1375 18.8625 16.95C19.1625 16.5375 19.0375 15.5125 18.7875 15.15C19.55 14.6875 20.65 14.3625 21.3125 14.2125C21.375 14.325 22.175 16.675 22.325 17.0875C22.4125 17.325 22.5 17.6 22.6625 17.5375C22.775 17.5 22.7 17.2375 22.6 16.9875C22.475 16.6625 21.875 14.7 21.6875 14.1125C21.9125 13.9875 23.225 13.725 23.5625 13.7375C23.4 14.6 24 14.95 24.7 15.4C25.075 15.6375 27.3875 16.975 27.875 17.275C28.15 17.45 28.3625 17.5625 28.425 17.475C28.4875 17.375 28.3 17.1875 28.0375 17.05C27.825 16.925 25.675 15.675 24.775 15.1C24.125 14.7 23.775 14.25 23.9375 13.6875C24.15 13.625 24.8 13.625 25.475 13.625C30.075 13.6625 33.775 16.3125 34.1875 16.725C34.4 16.9375 34.6875 17.125 34.8 17.0375C34.8875 17 34.7625 16.75 34.6625 16.6375ZM18.6 14.8125C18.475 14.6 17.8875 14.075 17.575 13.9625C18.3125 13.425 20.025 12.6375 20.675 12.5C20.7875 12.6875 21.0875 13.4875 21.1875 13.8125C20.625 13.9375 19.1 14.5 18.6 14.8125ZM23.6375 13.3375C23.0375 13.375 21.95 13.6125 21.5625 13.725C21.4625 13.4625 21.1875 12.65 21.1 12.4C22.2125 12.0875 23.4875 11.9875 24.4875 12.0625C24.2 12.2625 23.7375 13.0875 23.6375 13.3375ZM26.625 13.3C25.625 13.225 24.8125 13.2 24.1 13.275C24.3125 12.7625 24.7125 12.2625 25.0375 12.0625C25.7125 12.0875 26.4125 12.1875 26.9875 12.3C28.775 12.6625 31.5375 13.7375 32.7375 15.3375C31.1375 14.2625 28.4875 13.425 26.625 13.3Z" fill="#0B1A23"/>
<path d="M35.6625 32.4125C35.8375 32.1 35.975 31.925 35.825 31.8375C35.6875 31.7625 35.5625 32.0625 35.4 32.325C34.8625 33.2625 34.275 34.0375 32.95 35.2375C31.4875 36.575 29.7875 37.35 29.2 37.55C28.7 36.15 26.7875 30.15 26.7375 29.975C26.6625 29.7125 26.6 29.6375 26.5125 29.675C26.4125 29.7125 26.475 29.85 26.525 30.075C26.575 30.3 28.85 37.3875 28.925 37.65C28.475 37.875 26.65 38.3875 25.3625 38.425C24.2125 38.4625 22.8875 38.425 22.2125 38.2625C21.425 37.625 19.6125 35.075 18.9375 33.725C18.125 32.125 17.6 30.6625 17.4625 30.0375C17.4 29.7375 17.3125 29.525 17.1625 29.5625C17 29.6 17.0875 29.8375 17.1875 30.15C17.4375 30.975 17.825 32.1375 18.6625 33.8C19.55 35.5625 21.1375 37.6125 21.6 38.1875C20.15 37.875 18.3875 37.2 16.7125 35.9625C15.275 34.8875 14.025 33.5125 13.4 32.5125C13.2875 32.3375 13.1625 32.1 13.0125 32.2C12.9375 32.25 13.025 32.45 13.1375 32.625C14.05 34.25 16.25 36.55 19.0875 37.825C22.3875 39.3 25.975 39.2125 29.2125 37.975C32.0125 36.8625 34.45 34.625 35.6625 32.4125Z" fill="#0B1A23"/>
<path d="M30.3375 26.625C29.1125 28.1125 28.4125 28.625 27.175 28.625C26.7625 28.625 26.5375 28.525 26.65 28.325L28.125 25.3625H28.6875C29.3125 25.3625 29.225 25.8875 29.0625 26.6C29.025 26.7 29.1125 26.7125 29.1875 26.625L30.5875 24.1625C30.6625 24 30.475 23.975 30.3875 24.0875C29.6875 25.05 28.95 24.975 28.625 24.975H28.3625L29.9375 21.9625H30.575C31.375 22.0125 31.75 22.6875 31.525 24.325H31.8625L33.025 22.0375C33.125 21.8375 32.9125 21.6625 32.7 21.6625H24.8375C24.3875 21.6625 24.3625 22.0125 24.8 22.0125C25.1625 22.0125 25.1375 22.5125 24.8125 22.7625L21.475 25.4125L22.15 28.5375C22.2 28.775 22.35 28.8875 22.6125 28.8875H29.125C29.4 28.8875 29.5125 28.775 29.5875 28.6625L30.775 26.6375C30.9125 26.35 30.5375 26.375 30.3375 26.625ZM25.7875 25.1875H25.2125C25.175 25.1875 25.1375 25.225 25.1375 25.2625C25.1375 25.3 25.175 25.3375 25.2125 25.3375H25.7875C25.9875 25.3375 26.175 25.3625 26.125 25.45L24.625 28.3C24.4375 28.65 24.05 28.5625 23.9875 28.2875L23.2375 24.4375L25.8625 22.4125C26.125 22.1875 26.625 21.825 26.8875 21.8375H27.45C27.8 21.8375 27.9125 22 27.85 22.2125L27.75 22.4125C27.6875 22.525 27.475 22.5375 27.3125 22.5375H26.975C26.9375 22.5375 26.9 22.575 26.9 22.6125C26.9 22.65 26.9375 22.6875 26.975 22.6875H27.3C27.4375 22.6875 27.625 22.6875 27.55 22.8L26.3375 25.1125C26.2625 25.175 26.0125 25.1875 25.7875 25.1875Z" fill="#542C81"/>
<path d="M20.4 28.55C20.225 28.55 20.1 28.425 20.0625 28.3C20 28.125 20.0125 27.8375 20.075 27.7125L23.1125 22.3375C23.1625 22.2375 23.2875 22.025 23.4375 22.025C23.7125 22.025 23.825 21.6625 23.3625 21.6625H20.9375C20.4875 21.6625 20.4875 22.0125 20.9125 22.0125C21.0875 22.0125 21.1625 22.1875 21.1125 22.3L20.4375 23.5125C20.35 23.65 20.1625 23.6625 19.975 23.6625H19.4C19.3625 23.6625 19.325 23.7 19.325 23.7375C19.325 23.775 19.3625 23.8125 19.4 23.8125H19.975C20.1375 23.8125 20.2625 23.8625 20.1625 24.05L17.925 28.1375C17.7625 28.3625 17.45 28.4125 17.4625 27.975L18.2625 21.9875C18.3 21.8 18.25 21.675 18.0375 21.675H16.825C16.675 21.675 16.5875 21.75 16.525 21.8375L16.1 22.375C16.0375 22.4375 15.925 22.4375 15.7875 22.4375H14.775C14.7375 22.4375 14.7 22.475 14.7 22.5125C14.7 22.55 14.7375 22.5875 14.775 22.5875H15.6C15.75 22.5875 15.925 22.625 15.8625 22.6875L14.7 24.1375C14.6625 24.175 14.55 24.1875 14.475 24.1875H14.1375C14.1 24.1875 14.0625 24.225 14.0625 24.2625C14.0625 24.3 14.1 24.3375 14.1375 24.3375H14.4125C14.5 24.3375 14.5 24.375 14.4625 24.4125L13.375 25.775C13.3125 25.825 13.2125 25.8375 13.1 25.8375H12.1375C12.1 25.8375 12.0625 25.875 12.0625 25.9125C12.0625 25.95 12.1 25.9875 12.1375 25.9875H12.9625C13.0875 25.9875 13.1875 26.0125 13.125 26.1L11.5875 28.0375C11.2875 28.4125 9.9 28.5875 9.625 28.5875L14.85 18.8125C14.9 18.7 15.1 18.525 15.2875 18.525H16.4C16.9125 18.525 16.9 18.175 16.45 18.175H10.9C10.45 18.175 10.4375 18.525 10.95 18.525H11.9875C12.2875 18.525 12.375 18.7 12.3 18.85L12.15 19.125C12.1 19.2125 12.025 19.25 11.75 19.25H9.9125C9.875 19.25 9.8375 19.2875 9.8375 19.325C9.8375 19.3625 9.875 19.4 9.9125 19.4H11.7375C11.8375 19.4 11.9875 19.425 11.9 19.6125L11.6375 20.0875C11.5875 20.1625 11.475 20.2 11.35 20.2H10.525C10.4875 20.2 10.45 20.2375 10.45 20.275C10.45 20.3125 10.4875 20.35 10.525 20.35H11.35C11.475 20.35 11.475 20.425 11.4 20.5375L10.8125 21.6375C10.7625 21.7375 10.6625 21.75 10.475 21.75H10.1375C10.1 21.75 10.0625 21.7875 10.0625 21.825C10.0625 21.8625 10.1 21.9 10.1375 21.9H10.475C10.6 21.9 10.6375 21.975 10.575 22.0875L10.1 22.9875C10.025 23.1125 9.925 23.175 9.6125 23.175H7.7875C7.75 23.175 7.7125 23.2125 7.7125 23.25C7.7125 23.2875 7.75 23.325 7.7875 23.325H9.6125C9.825 23.325 9.9 23.425 9.8125 23.575L8.875 25.35C8.8125 25.425 8.6625 25.4375 8.4125 25.4375H6.575C6.5375 25.4375 6.5 25.475 6.5 25.5125C6.5 25.55 6.5375 25.5875 6.575 25.5875H8.3875C8.6125 25.5875 8.75 25.6 8.675 25.7125L8.1375 26.7375C8.0375 26.9 7.75 26.9 7.65 26.9H7.075C7.0375 26.9 7 26.9375 7 26.975C7 27.0125 7.0375 27.05 7.075 27.05H7.65C7.85 27.05 7.9625 27.0875 7.9125 27.2L7.1875 28.5625C7.125 28.6875 6.8375 28.6875 6.625 28.6875H3.7875C3.75 28.6875 3.7125 28.725 3.7125 28.7625C3.7125 28.8 3.75 28.8375 3.7875 28.8375H6.6125C6.8 28.8375 7.025 28.8625 6.95 29.0125L6.4875 29.8875C6.4375 29.9625 6.2875 29.9625 6.0625 29.9625H5.4875C5.45 29.9625 5.4125 30 5.4125 30.0375C5.4125 30.075 5.45 30.1125 5.4875 30.1125H6.0625C6.2 30.1125 6.375 30.125 6.3125 30.2375L6.025 30.7875C5.925 30.925 5.8375 31.05 5.625 31.05H4.1625C3.65 31.05 3.6625 31.4 4.1125 31.4H12.425C12.675 31.4 12.675 31.3625 12.8 31.1875L14.025 29.0375H20.325C20.7875 28.9125 20.6625 28.5625 20.4 28.55ZM15.45 27.9125C15.3875 28.275 15.0375 28.5 14.5875 28.6125L14.125 28.725L14.5125 28.0375C14.6125 27.85 14.3875 27.7375 14.15 28.0125C12.5375 29.8875 12.0375 30.7875 9.55 30.8H8.875C8.675 30.8 8.4625 30.725 8.5875 30.525L9.4625 28.8875H12.8C13.25 28.8875 13.1375 28.5375 12.875 28.525C12.7 28.525 12.5 28.4125 12.375 28.2C12.3375 28.1375 12.25 27.9 12.3875 27.725L13.6625 26.025H15.7625L15.45 27.9125ZM15.9375 25.775H13.875L16.5 22.3125L15.9375 25.775Z" fill="#542C81"/>
<path d="M47.45 26.8375C47.4125 26.6625 47.35 26.775 47.2375 26.9875C47.2 27.05 47.0875 27.05 46.9875 27.05H46.65C46.6125 27.05 46.575 27.0875 46.575 27.125C46.575 27.1625 46.6125 27.2 46.65 27.2H46.9875C47.1125 27.2 47.1125 27.2875 47.0625 27.4125C46.825 27.9 46.6 28.225 46.2875 28.625C46.2375 28.6875 46.1125 28.7375 46.0125 28.7375H45.675C45.6375 28.7375 45.6 28.775 45.6 28.8125C45.6 28.85 45.6375 28.8875 45.675 28.8875H46.0125C46.175 28.8875 46.0125 28.9875 45.9875 29.025C45.4125 29.8 45 30.15 44.5875 30.4875C44.5375 30.525 44.2875 30.5125 44.1375 30.5125H43.8C43.7625 30.5125 43.725 30.55 43.725 30.5875C43.725 30.625 43.7625 30.6625 43.8 30.6625H44.125C44.375 30.6625 44.1875 30.8125 44.15 30.8375C43.2375 31.5875 41.9 31.8375 41.2875 31.7625C39.275 31.5125 38.875 29.9875 38.725 29.3875C38.6875 29.2625 38.6 29 38.5625 28.8375C38.5 28.5125 39.4 28.4375 39.6625 28.5875C40.05 28.85 40.9125 29.1 41.625 29.1C42.2625 29.1 43.5875 28.6375 43.9625 27.5375C44.3625 26.4 43.375 25.1625 42.9375 24.7125C42.3875 24.1625 41.8625 23.2875 42.0875 22.6375C42.25 22.1625 42.525 21.9375 43.125 21.9375C43.8875 21.9375 44.45 22.425 44.45 23.1375C44.45 23.2 44.4125 23.275 44.3625 23.275H44.0875C44.05 23.275 44.0125 23.3125 44.0125 23.35C44.0125 23.3875 44.05 23.425 44.0875 23.425H44.35C44.425 23.425 44.4625 23.475 44.45 23.575C44.4 23.8125 44.3875 23.975 44.325 24.2C44.3 24.3375 44.5 24.4375 44.5625 24.3375L45.775 22.1875C45.8625 22.025 45.6625 21.975 45.525 22.025C45.1875 22.1375 44.6625 22.225 44.4625 22.0875C44.0125 21.7625 43.6 21.5625 42.975 21.5625C41.9 21.5625 41.15 21.825 40.675 22.7125C40.6375 22.7875 40.525 22.775 40.4375 22.775H40.225C40.1875 22.775 40.15 22.8125 40.15 22.85C40.15 22.8875 40.1875 22.925 40.225 22.925H40.4C40.475 22.925 40.525 22.95 40.4875 23.0375C40.45 23.1125 40.425 23.2 40.4 23.2875C40.275 23.675 40.3125 24.2 40.5125 24.675C40.525 24.7125 40.4875 24.725 40.4125 24.725H40.075C40.0375 24.725 40 24.7625 40 24.8C40 24.8375 40.0375 24.875 40.075 24.875H40.4125C40.5625 24.875 40.6 24.8875 40.6625 24.975C40.8375 25.2125 41.0125 25.3875 41.2125 25.6625C41.2875 25.75 40.9875 25.775 40.825 25.775H39.5375C39.5 25.775 39.4625 25.8125 39.4625 25.85C39.4625 25.8875 39.5 25.925 39.5375 25.925H40.85C41.0625 25.925 41.425 25.925 41.4625 25.9625C41.7875 26.3375 42.1625 26.9 42.225 27.3625C42.2375 27.5 42.1875 27.5625 42.025 27.5625H41.85C41.8125 27.5625 41.775 27.6 41.775 27.6375C41.775 27.675 41.8125 27.7125 41.85 27.7125H42.0125C42.15 27.7125 42.225 27.7375 42.1875 27.8375C42.0125 28.375 41.7625 28.775 40.725 28.775C39.625 28.775 39.4125 27.7 39.725 26.5875C39.7875 26.3625 39.725 26.2625 39.625 26.4375L38.8625 27.6375C38.8375 27.6625 38.775 27.7375 38.65 27.7375H38.5375C38.5 27.7375 38.4625 27.775 38.4625 27.8125C38.4625 27.85 38.5 27.8875 38.5375 27.8875C38.6375 27.8875 38.675 27.9375 38.6375 27.9875L38.35 28.4125C37.9 27.3625 37.125 26.075 36.7125 25.6L36.725 25.575C37.7375 25.5125 39.225 24.5625 39.475 23.7125C39.8875 22.25 38.4625 21.7 37.6875 21.7H34.2625C33.8125 21.7 33.775 22.05 34.2125 22.05C34.45 22.05 34.65 22.2625 34.55 22.4625L33.7875 23.825C33.725 23.9375 33.4875 23.9375 33.1875 23.9375H32.85C32.8125 23.9375 32.775 23.975 32.775 24.0125C32.775 24.05 32.8125 24.0875 32.85 24.0875H33.175C33.4 24.0875 33.625 24.1 33.5625 24.2625L32.6625 25.875C32.6125 25.95 32.5 25.9625 32.2 25.9625H31.8625C31.825 25.9625 31.7875 26 31.7875 26.0375C31.7875 26.075 31.825 26.1125 31.8625 26.1125H32.1875C32.4375 26.1125 32.525 26.15 32.45 26.275L31.25 28.4375C31.1 28.6 30.9375 28.625 30.65 28.625C30.225 28.625 30.225 28.975 30.675 28.975H33.6C34.05 28.975 33.95 28.6125 33.675 28.6125C33.5125 28.6125 33.35 28.3125 33.45 28.15L34.9375 25.3125H35.0875C35.75 25.3125 35.9125 26.4125 36.0375 27.5875C36.05 27.675 35.8875 27.675 35.5625 27.675H34.725C34.6875 27.675 34.65 27.7125 34.65 27.75C34.65 27.7875 34.6875 27.825 34.725 27.825H35.55C35.775 27.825 36.0625 27.825 36.075 27.9C36.1375 28.4125 36.175 28.8875 36.275 29.3C36.3125 29.4375 36.075 29.4125 35.825 29.4125H34.75C34.7125 29.4125 34.675 29.45 34.675 29.4875C34.675 29.525 34.7125 29.5625 34.75 29.5625H35.8125C36.15 29.5625 36.3125 29.5625 36.325 29.625C36.775 31.3 38.7375 32.6125 40.6375 32.5375C42.2625 32.475 43.6375 31.5875 44.3375 31.025C45.275 30.275 46.65 28.7 47.2125 27.55C47.3125 27.3 47.4875 27.025 47.45 26.8375ZM36.475 24.6125C36.2375 24.8 35.8875 25.0125 35.825 24.95C35.725 24.85 35.425 24.6375 35.2625 24.5625L36.6125 22.0875C36.675 22 36.7375 21.95 36.8875 21.95C37.4125 21.95 37.5875 22.525 37.3375 23.2375C37.1625 23.7375 36.8875 24.2875 36.475 24.6125Z" fill="#542C81"/>
<path d="M20 19.4625C19.725 19.825 19.3625 19.9 18.95 19.9H18.8375L19.5625 18.475C19.6 18.4125 19.675 18.3625 19.775 18.3625C19.8625 18.3625 19.85 18.175 19.7375 18.175H18.6C18.5 18.175 18.4625 18.3625 18.5625 18.3625C18.6625 18.3625 18.675 18.475 18.6375 18.5625L18 19.825C17.95 19.9 17.8875 19.9125 17.8 19.9375C17.7 19.9625 17.6375 20.1375 17.75 20.1375H19.5625C19.7 20.1375 19.7375 20.0875 19.775 20.0375L20.15 19.475C20.15 19.4125 20.05 19.4 20 19.4625Z" fill="#542C81"/>
<path d="M38.025 18.7375L38.1875 18.4375C38.2625 18.3125 38.1375 18.1625 37.9625 18.1625H35.85C35.7 18.1625 35.7375 18.325 35.8 18.325C35.9375 18.325 35.975 18.4875 35.9 18.6375L35.2625 19.8125C35.1625 19.925 35.1 19.975 34.9625 19.975C34.85 19.975 34.8125 20.1375 34.9625 20.1375H37.1C37.1875 20.1375 37.225 20.1 37.2625 20.0625L37.5625 19.675C37.6375 19.575 37.475 19.575 37.4375 19.625C37.0625 20 36.675 19.9875 36.375 19.9875H36.125L36.425 19.3375H36.4875C36.675 19.3375 36.8875 19.3375 36.95 19.4875C36.9625 19.525 37.0625 19.55 37.1 19.4875L37.35 18.9875C37.3875 18.9125 37.275 18.9 37.25 18.95C37.15 19.125 36.725 19.075 36.6 19.075H36.5375L36.9125 18.35H37.3125C37.575 18.35 37.775 18.5375 37.85 18.725C37.875 18.7625 38 18.8 38.025 18.7375Z" fill="#542C81"/>
<path d="M45.95 18.2375C45.9 18.2625 45.7625 18.2875 45.7 18.2375C45.55 18.1125 45.275 18.025 45.125 18.025C44.7 18.025 44.3875 18.1125 44.2 18.5125C44.0375 18.8625 44.2 19.1375 44.5875 19.325C44.75 19.4 44.975 19.5 44.8875 19.7C44.825 19.85 44.65 19.8625 44.5 19.8625C44.3 19.8625 44 19.7125 43.95 19.425C43.9375 19.325 43.825 19.35 43.7875 19.4L43.525 19.9125C43.4875 19.9875 43.5875 20.0625 43.6375 20.0125C43.725 19.9125 43.925 19.9 44.0125 19.9625C44.1375 20.05 44.4625 20.2 44.6625 20.2C45.0875 20.2 45.375 20.0875 45.625 19.725C45.85 19.375 45.7125 19.05 45.3125 18.8625C45.1 18.7625 44.925 18.5875 45.0125 18.4C45.075 18.275 45.2625 18.3 45.3625 18.3125C45.5375 18.3375 45.7625 18.5125 45.7875 18.6625C45.8 18.725 45.875 18.7375 45.9125 18.675L46.05 18.35C46.075 18.2625 45.975 18.2125 45.95 18.2375Z" fill="#542C81"/>
<path d="M40.275 19.4625C40 19.825 39.6375 19.9 39.225 19.9H39.1125L39.8375 18.475C39.875 18.4125 39.95 18.3625 40.05 18.3625C40.1375 18.3625 40.125 18.175 40.0125 18.175H38.875C38.775 18.175 38.7375 18.3625 38.8375 18.3625C38.9375 18.3625 38.95 18.475 38.9125 18.5625L38.275 19.825C38.225 19.9 38.1625 19.9125 38.075 19.9375C37.975 19.9625 37.9125 20.1375 38.025 20.1375H39.8375C39.975 20.1375 40.0125 20.0875 40.05 20.0375L40.425 19.475C40.425 19.4125 40.325 19.4 40.275 19.4625Z" fill="#542C81"/>
<path d="M43 18.35C43.2625 18.35 43.4625 18.5375 43.5375 18.725C43.55 18.775 43.6875 18.8125 43.725 18.75L43.8875 18.45C43.9625 18.325 43.8375 18.175 43.6625 18.175H41.55C41.4 18.175 41.4375 18.3375 41.5 18.3375C41.6375 18.3375 41.675 18.5 41.6 18.65L40.9625 19.825C40.8625 19.9375 40.8 19.9875 40.6625 19.9875C40.55 19.9875 40.5125 20.15 40.6625 20.15H42.8C42.8875 20.15 42.925 20.1125 42.9625 20.075L43.2625 19.6875C43.3375 19.5875 43.175 19.5875 43.1375 19.6375C42.7625 20.0125 42.375 20 42.075 20H41.825L42.125 19.35H42.1875C42.375 19.35 42.5875 19.35 42.65 19.4875C42.6625 19.525 42.7625 19.55 42.8 19.4875L43.05 18.9875C43.0875 18.9125 42.975 18.9 42.95 18.95C42.85 19.125 42.425 19.075 42.3 19.075H42.2375L42.6125 18.35H43.0125H43Z" fill="#542C81"/>
<path d="M32.6125 18.175H31.8625C31.7125 18.175 31.75 18.3375 31.8125 18.3375C31.975 18.3375 32.125 18.525 32.0375 18.7L31.725 19.2625L31.0375 18.25C30.9875 18.1875 30.875 18.15 30.7875 18.15H30.05C29.9 18.15 29.925 18.3125 30 18.3125C30.1625 18.3125 30.1125 18.4375 30.075 18.5125L29.4875 19.65C29.45 19.7375 29.2875 19.75 29.2375 19.6375L28.7875 18.15C28.7625 18.0875 28.5 18.0875 28.425 18.15L27.275 19.1H26.6875C26.5625 19.1 26.525 19.15 26.525 19.2125C26.525 19.275 26.575 19.3375 26.7 19.3375H27.0125L26.7 19.6C26.525 19.725 26.35 19.9125 26.2375 19.9125H26.1625C26.05 19.9125 25.9875 19.925 25.9875 20.025C25.9875 20.1125 26.0375 20.15 26.1375 20.15H27.0625C27.2375 20.15 27.2 19.925 27.1125 19.925C27.0125 19.925 26.85 19.8 27 19.625L27.2875 19.35H27.8375C28.175 19.35 28.3875 19.7375 28.2125 19.85L28.0625 19.9375C27.9875 19.975 27.9625 20.15 28.0625 20.15H29.875C30.0125 20.15 29.9875 19.975 29.925 19.975C29.7375 19.975 29.825 19.7 29.8625 19.6375L30.3375 18.7375L31 20.025C31.05 20.1125 31.0875 20.15 31.1625 20.15H31.425C31.5125 20.15 31.5375 20.1 31.575 20.0375L32.3375 18.675C32.4625 18.425 32.5625 18.35 32.7125 18.35C32.725 18.35 32.775 18.175 32.6125 18.175ZM27.5625 19.1125L28.2625 18.5375V19.1125H27.5625Z" fill="#542C81"/>
<path d="M21.925 18.1C21.2875 18.1 20.6375 18.4125 20.5125 19.0875C20.4 19.6625 20.8 20.275 21.5125 20.275C22.1875 20.275 22.8 19.8375 22.9375 19.1875C23.05 18.5375 22.5625 18.1 21.925 18.1ZM22.1 19.325C21.9 19.725 21.5625 19.9625 21.35 19.85C21.1375 19.7375 21.125 19.3375 21.325 18.925C21.525 18.525 21.8625 18.2875 22.075 18.4C22.3 18.5125 22.3125 18.9125 22.1 19.325Z" fill="#542C81"/>
<path d="M25.45 18.2375C25.4 18.2625 25.2625 18.2875 25.2 18.2375C25.05 18.1125 24.775 18.025 24.625 18.025C24.2 18.025 23.8875 18.1125 23.7 18.5125C23.5375 18.8625 23.7 19.1375 24.0875 19.325C24.25 19.4 24.475 19.5 24.3875 19.7C24.325 19.85 24.15 19.8625 24 19.8625C23.8 19.8625 23.5 19.7125 23.45 19.425C23.4375 19.325 23.325 19.35 23.2875 19.4L23.025 19.9125C22.9875 19.9875 23.0875 20.0625 23.1375 20.0125C23.225 19.9125 23.4125 19.9 23.5125 19.9625C23.6375 20.05 23.9625 20.2 24.1625 20.2C24.5875 20.2 24.875 20.0875 25.125 19.725C25.35 19.375 25.2125 19.05 24.8125 18.8625C24.6 18.7625 24.425 18.5875 24.5125 18.4C24.575 18.275 24.7625 18.3 24.8625 18.3125C25.0375 18.3375 25.2625 18.5125 25.2875 18.6625C25.3 18.725 25.375 18.7375 25.4125 18.675L25.55 18.35C25.5875 18.2625 25.4875 18.2125 25.45 18.2375Z" fill="#542C81"/>
<path d="M34.7625 19.0625H33.95C33.8 19.0625 33.8375 19.225 33.9 19.225C33.9625 19.225 34.025 19.2625 34.025 19.3625C34.025 19.7 33.8875 19.8125 33.6125 19.8125C33.3 19.8125 33.2 19.425 33.4 18.975C33.5375 18.675 33.8875 18.4125 34.3125 18.4125C34.575 18.4125 34.775 18.475 34.8125 18.7125C34.825 18.775 34.9125 18.775 34.9375 18.7125L35.1375 18.3625C35.1625 18.325 35.125 18.275 35.0625 18.275C35.0125 18.275 34.9 18.3375 34.825 18.2875C34.6625 18.1625 34.3125 18.05 34.0375 18.05C33.6 18.05 32.9875 18.15 32.575 18.8625C32.2 19.5125 32.75 20.1875 33.25 20.1875C33.5375 20.1875 33.85 19.975 34.0375 19.9L34.25 20.0375C34.2875 20.075 34.35 20.125 34.4125 20.125H34.4875C34.5625 20.125 34.5875 20.025 34.6125 19.9625L34.9375 19.1875C34.9625 19.125 34.9375 19.0625 34.7625 19.0625Z" fill="#542C81"/>
</svg>
