<svg width="40" height="24" viewBox="0 0 40 24" fill="none" xmlns="http://www.w3.org/2000/svg">
<g clip-path="url(#clip0_3_1542)">
<path fill-rule="evenodd" clip-rule="evenodd" d="M15.7569 23.3568H13.1294V0.584H17.1953L19.9153 19.3696C19.509 14.9048 18.9773 7.696 18.9773 3.9008V0.584H21.6039V23.3568H17.8824L15.3804 5.112C15.6 9.1944 15.7561 14.0744 15.7561 16.8176V23.356M23.1051 23.3568V0.584H26.8259C29.2965 0.584 30.8282 1.9552 30.8282 5.1448V8.4936C30.8282 10.5672 30.2024 11.6192 29.3271 12.1616C30.2024 12.736 30.8282 13.756 30.8282 15.5104V18.8272C30.8282 21.9528 29.2024 23.3568 26.8259 23.3568H23.1051ZM26.1067 3.4544V10.9816H26.4816C27.5451 10.9816 27.8267 10.5672 27.8267 9.3232V4.9856C27.8267 3.9328 27.5137 3.4544 26.6071 3.4544H26.1067ZM26.1067 13.4696V20.4856H26.6071C27.5451 20.4856 27.8267 19.944 27.8267 18.8592V15C27.8267 13.884 27.4816 13.4696 26.4816 13.4696H26.1067ZM36.4533 19.0824H34.5773L34.3263 23.3568H31.2941L33.4824 0.584H37.7349L39.862 23.3568H36.7035L36.4533 19.0824ZM34.702 16.4992H36.2973L36.0463 12.3208C35.9529 10.6624 35.7028 5.4 35.5153 2.5608H35.3898L34.9522 12.3208L34.702 16.4992ZM7.92549 0H2.4298C1.78551 0.000423852 1.16772 0.261676 0.712132 0.726375C0.256545 1.19107 0.000415541 1.82122 0 2.4784L0 21.4608C0.000206914 22.1183 0.25617 22.7489 0.711712 23.2142C1.16725 23.6794 1.78516 23.9413 2.4298 23.9424H7.92157C8.56679 23.9416 9.18538 23.6799 9.64184 23.2148C10.0983 22.7496 10.3554 22.1189 10.3569 21.4608V2.4784C10.3558 1.82114 10.0993 1.19112 9.64349 0.726511C9.1877 0.261904 8.56987 0.000634596 7.92549 0Z" fill="#FFFFFE"/>
<path fill-rule="evenodd" clip-rule="evenodd" d="M6.56235 4.3888L6.56784 4.4704C6.73568 4.5696 6.82039 4.6512 6.9898 4.7616C7.43764 5.0496 7.9898 5.5616 7.92 7.324C8.04549 7.708 8.10117 8.4632 8.21804 8.7056C8.45098 9.1776 8.60706 9.4848 8.67529 9.9304C8.67529 9.9304 8.74196 10.624 8.8298 10.6744C9.29333 10.7816 9.15921 10.828 9.22745 10.9088C9.2996 11.004 9.56706 10.9992 9.56706 11.2536C9.6596 11.38 9.72862 11.512 9.78039 11.6488V2.4784C9.77997 1.97652 9.58449 1.49528 9.23679 1.14017C8.88908 0.785063 8.41753 0.585058 7.92549 0.584H6.1498C6.43529 0.688 6.59686 0.8096 6.69019 1.0032C6.91921 1.0232 7.19215 1.5472 6.76706 2.3224C6.95529 2.4504 6.80862 2.6408 6.67372 2.8624C6.63451 2.9336 6.59137 3.06 6.46509 3.0512C6.30431 3.3976 6.10902 3.7328 5.96235 3.7536C5.91764 3.8096 5.88549 3.9584 5.95215 4.0288C6.16862 4.1272 6.43215 4.2632 6.56235 4.3888ZM9.78039 12.8912C9.65771 13.2057 9.44515 13.4754 9.17032 13.6651C8.89549 13.8548 8.57108 13.9559 8.23921 13.9552C8.02182 13.9553 7.80654 13.9117 7.60567 13.8269C7.4048 13.7422 7.22227 13.6178 7.06851 13.4611C6.91476 13.3043 6.79279 13.1182 6.70957 12.9134C6.62636 12.7085 6.58353 12.4889 6.58353 12.2672C6.58353 11.4712 7.12 10.8032 7.84862 10.6248C7.65804 10.1368 7.2549 9.3472 7.1349 9.0888C7.02196 8.8312 6.74902 7.2248 6.69019 6.9072C6.67686 6.8376 5.97568 7.3224 5.97411 7.352C5.93333 7.392 5.44862 8.6848 5.42823 8.7544C5.41804 8.7984 5.41725 8.9704 5.41725 8.9704C5.41725 8.9704 5.65568 9.0008 5.79294 9.4256C5.92862 9.8496 6.34196 11.396 6.34196 11.396C6.34196 11.396 6.23059 11.5144 6.22588 11.508C6.74902 13.2936 6.56627 14.0624 6.80078 14.5864C7.09568 15.324 7.17568 15.2272 7.42823 15.848C7.61019 16.3 7.81255 18.0784 7.88 18.1568C8.16235 18.5224 8.31451 18.8072 8.31451 19.0128C8.31451 19.2208 8.07529 19.8328 8.16235 20.1896C8.21568 20.4 8.24313 20.8696 8.33882 20.9592C8.33882 20.9592 8.42666 21.136 8.38353 21.2152C8.37098 21.2416 8.34588 21.2824 8.35764 21.3152C8.51294 21.8752 9.01647 22.832 8.20157 23.3328H8.21882C8.65584 23.2634 9.05389 23.0362 9.34049 22.6926C9.6271 22.3491 9.78321 21.9119 9.78039 21.4608V12.8912Z" fill="#B52532"/>
<path fill-rule="evenodd" clip-rule="evenodd" d="M7.68941 21.0968C7.39137 20.8248 7.59059 20.7104 7.57804 20.6032C7.38196 19.7736 6.73569 19.272 7.0698 18.9984C6.98745 18.7248 6.81961 18.3808 6.82588 18.3816C5.81961 17.792 4.96235 16.8344 4.81725 16.6936C4.64078 16.4984 4.33961 16.3016 4.28392 16.1432C4.04157 15.9168 2.85569 14.2008 2.57961 13.5688L2.09804 13.4992C1.87843 12.5872 1.14745 11.8216 1.12941 10.9072C1.12314 10.5608 1.28314 9.82 1.34274 9.6728C1.40157 9.5224 1.68157 9.2768 1.68157 9.2768V9.032C0.631372 9.0624 0.933333 8.9528 0.752941 8.536C0.625882 8.248 0.716862 8.184 0.762352 7.984C0.903529 7.3944 1.37176 6.484 1.56471 6.0704C1.62431 5.8616 1.82667 5.3584 1.82667 5.3584C2.60941 3.7328 2.90196 3.852 3.83137 3.76L3.87686 3.6928C4.80863 3.6512 4.65569 3.58 4.78667 2.6648C4.65176 2.724 4.61098 2.3776 4.61098 2.3776C4.53725 1.8576 4.75216 1.956 4.85412 1.9456C4.87686 1.0896 4.96235 0.8192 5.56784 0.5832H2.43059C2.18645 0.5832 1.94471 0.632274 1.71918 0.727617C1.49365 0.82296 1.28876 0.962702 1.1162 1.13886C0.943645 1.31501 0.806816 1.52413 0.713533 1.75425C0.62025 1.98437 0.572342 2.23098 0.572549 2.48V21.4616C0.572549 22.5088 1.40392 23.3576 2.43137 23.3576H7.92549C7.29647 23.0104 7.66823 22.3496 7.68941 21.0968Z" fill="#253B73"/>
</g>
<defs>
<clipPath id="clip0_3_1542">
<rect width="40" height="24" fill="white"/>
</clipPath>
</defs>
</svg>
